<svg version="1.1" id="Layer_1" xmlns="http://www.w3.org/2000/svg" xmlns:xlink="http://www.w3.org/1999/xlink" x="0px" y="0px"
	 width="100%" viewBox="0 0 324 324" enable-background="new 0 0 324 324" xml:space="preserve">
<path fill="#020100" opacity="1.000000" stroke="none" 
	d="
M97.000000,325.000000 
	C65.012161,325.000000 33.024330,325.000000 1.018248,325.000000 
	C1.018248,217.053223 1.018248,109.106445 1.018248,1.079833 
	C108.905670,1.079833 216.811417,1.079833 324.858582,1.079833 
	C324.858582,108.999870 324.858582,216.999908 324.858582,325.000000 
	C297.916565,325.000000 270.926941,325.000000 243.174591,324.667206 
	C242.301147,322.815735 242.563354,321.145111 242.016830,319.804016 
	C239.259399,313.037598 236.320526,306.344177 233.387405,299.650543 
	C231.220383,294.705231 228.964539,289.798859 226.443314,284.197632 
	C222.503860,292.881744 218.913422,300.505859 215.580872,308.241058 
	C213.207504,313.749939 211.181183,319.408325 209.000000,325.000000 
	C206.958328,325.000000 204.916672,325.000000 202.131592,324.738464 
	C202.029068,323.985291 202.634964,323.437958 203.316101,323.010498 
	C211.047745,318.158722 211.298264,309.213013 203.788239,304.127625 
	C200.810547,302.111298 197.637482,300.340454 194.883194,298.059601 
	C193.861282,297.213318 193.259415,295.141327 193.479248,293.793610 
	C193.603729,293.030396 195.751755,292.224792 197.045364,292.116058 
	C198.788483,291.969574 200.676788,292.923096 202.337723,292.587524 
	C204.335907,292.183777 206.160767,290.922150 208.060669,290.031952 
	C207.002151,288.654053 206.179611,286.451599 204.836746,286.067291 
	C201.905579,285.228394 198.707108,285.339600 195.622726,285.016357 
	C190.187057,284.446716 187.365616,287.979523 185.719528,292.166504 
	C184.049835,296.413452 184.979065,300.600800 189.048874,303.442657 
	C191.998734,305.502472 195.329544,307.108429 197.958405,309.501312 
	C199.489685,310.895142 199.972427,313.440948 200.926941,315.468445 
	C198.740891,316.189148 196.594864,317.123627 194.352463,317.543610 
	C193.166641,317.765656 191.672821,316.609680 190.566772,316.931244 
	C188.708618,317.471497 187.048965,318.694397 185.305817,319.630127 
	C186.120895,320.836456 186.995956,322.008240 187.720245,323.266815 
	C187.993210,323.741119 187.917023,324.416351 188.000000,325.000000 
	C186.285645,325.000000 184.571289,325.000000 182.137177,324.664398 
	C182.124573,319.751099 180.352264,317.181061 176.237000,317.060699 
	C172.642044,316.955566 169.041611,317.038788 165.056763,317.038788 
	C165.056763,313.332458 165.056763,310.313599 165.056763,306.845886 
	C168.998901,306.845886 172.924530,306.845886 176.740295,306.845886 
	C176.740295,304.343170 176.740295,302.300537 176.740295,299.882080 
	C172.442673,299.882080 168.527878,299.882080 164.751541,299.882080 
	C165.020721,297.426941 165.247391,295.359619 165.471893,293.312073 
	C171.830154,292.089813 180.248199,295.727386 182.440216,285.039215 
	C174.335999,285.039215 166.871460,284.896545 159.424149,285.190033 
	C158.281113,285.235077 156.258636,287.294922 156.264069,288.415131 
	C156.323212,300.610992 156.705627,312.805267 157.000000,325.000000 
	C155.611115,325.000000 154.222214,325.000000 152.263153,324.549957 
	C151.692963,311.158417 151.692963,298.216888 151.692963,285.275818 
	C146.590622,285.289734 144.276154,287.319336 144.152573,292.119659 
	C144.039902,296.496582 144.128693,300.878693 144.128693,306.673157 
	C136.599152,298.685211 130.161423,291.855530 123.000000,284.258118 
	C123.000000,298.804382 123.000000,311.902191 123.000000,325.000000 
	C118.975456,325.000000 114.950912,325.000000 110.155357,324.733032 
	C114.197174,321.712433 118.793045,318.504913 119.020096,312.400421 
	C119.353256,303.442566 119.105911,294.463135 119.105911,285.546997 
	C113.545883,284.870239 111.202087,286.704132 111.134651,291.591858 
	C111.063393,296.756073 111.513390,301.964417 110.967697,307.071442 
	C110.634911,310.185913 109.727173,314.361389 107.545761,315.930328 
	C102.467926,319.582428 97.285378,316.255035 97.160454,309.857025 
	C97.033623,303.361420 97.556282,296.817047 96.880295,290.390167 
	C96.676720,288.454742 93.418831,286.840546 91.560104,285.079193 
	C90.751144,286.796753 89.311218,288.490051 89.244110,290.236145 
	C88.975563,297.223785 89.070343,304.228638 89.154312,311.225616 
	C89.215042,316.285339 90.928070,320.476776 95.776360,322.924377 
	C96.379738,323.229004 96.601440,324.289642 97.000000,325.000000 
M172.418930,25.380634 
	C173.335068,24.026598 175.099747,22.580687 174.965454,21.340389 
	C174.771408,19.548052 173.185989,17.913200 172.221130,16.196030 
	C170.296249,12.770329 168.389664,9.334351 166.563309,6.059999 
	C163.919403,10.154922 161.466721,13.759297 159.223801,17.489798 
	C157.470383,20.406115 156.999252,23.357464 160.040207,25.656776 
	C159.492142,26.101694 158.922318,26.564276 158.175323,27.873766 
	C157.161209,38.149494 156.006058,48.413727 155.167450,58.703762 
	C154.030594,72.652916 153.123703,86.620941 152.141464,100.582512 
	C151.123947,115.045525 150.175797,129.513519 149.119934,143.973679 
	C148.185272,156.774033 147.398727,169.593002 146.075455,182.354858 
	C144.863785,194.040680 142.967667,205.654526 141.544205,217.320953 
	C141.408096,218.436432 142.247269,220.527359 143.042221,220.758148 
	C147.513367,222.056152 152.109680,222.923050 156.685745,223.942001 
	C157.127502,217.700333 157.542709,211.833893 158.451157,206.002274 
	C158.451157,206.002274 158.945450,206.016113 159.107635,206.845963 
	C159.189056,208.248535 159.270462,209.651093 159.194229,211.668747 
	C159.249817,212.084671 159.305405,212.500610 159.187759,213.819031 
	C159.240372,216.569550 159.292984,219.320053 159.172974,222.769394 
	C159.778656,224.155334 160.384323,225.541260 161.229660,227.518799 
	C162.174316,228.359848 163.118973,229.200897 164.183701,230.508087 
	C164.376724,230.801605 164.648849,230.953720 165.277710,231.517548 
	C165.471771,231.587463 165.665848,231.657379 166.382431,231.908875 
	C167.255203,231.232208 168.127975,230.555542 169.676804,229.827438 
	C173.305176,227.481873 174.747147,224.238052 174.183167,219.897537 
	C173.892349,217.659332 174.208954,215.342209 174.732681,213.034790 
	C174.732681,213.034790 175.191101,212.884949 175.872894,213.401352 
	C176.032715,216.847015 176.192551,220.292664 176.369827,224.114655 
	C181.836349,222.665070 186.942932,221.310944 191.235519,220.172668 
	C190.156555,212.779541 188.923508,205.900711 188.198471,198.968750 
	C187.273300,190.123566 186.823792,181.229797 186.051987,172.367188 
	C184.796188,157.946548 183.376266,143.539993 182.159134,129.116257 
	C181.369141,119.754517 180.771683,110.375664 180.167206,100.999359 
	C179.126740,84.859703 178.203583,68.712334 177.120102,52.575661 
	C176.579651,44.526436 175.891327,36.482674 174.987671,28.468262 
	C174.881104,27.523006 172.982635,26.779791 172.418930,25.380634 
M209.801010,254.282867 
	C214.321381,258.419891 218.824448,262.576019 223.368469,266.686859 
	C226.187408,269.237091 228.835144,272.064941 231.961670,274.171631 
	C246.197525,283.764008 260.310852,282.115601 271.948883,269.682953 
	C272.960785,268.601929 273.601196,267.173157 275.007751,264.980530 
	C261.901550,268.060944 251.609070,263.937469 241.569870,258.031738 
	C231.756912,252.259109 221.664993,246.960678 211.712555,241.463486 
	C213.134491,240.720886 215.012665,239.491394 217.062531,238.715652 
	C223.450684,236.298233 229.234894,232.609024 236.699692,232.776810 
	C244.744217,232.957626 251.785019,235.723618 259.012238,238.401550 
	C264.070038,240.275604 269.009521,243.231567 274.211823,243.807434 
	C288.835968,245.426270 295.984528,236.404907 302.032227,225.166595 
	C302.990112,223.386551 303.442780,221.334625 304.518890,218.314102 
	C290.118011,225.983398 277.275665,223.480667 264.017273,218.639984 
	C252.816696,214.550644 241.091385,213.717499 229.969376,219.732559 
	C227.633301,220.995972 225.651764,222.914948 223.506851,224.531845 
	C224.112595,219.953156 225.292740,215.725464 227.283478,211.922028 
	C231.552979,203.764862 237.224350,196.927307 246.462784,193.906052 
	C256.230896,190.711533 265.939514,191.095810 275.582977,194.231934 
	C289.832306,198.865921 302.884277,195.197189 310.137451,181.680099 
	C314.738281,173.106049 314.348541,164.318314 313.810425,153.921417 
	C310.407959,158.124954 308.313507,161.565842 305.431335,164.116684 
	C295.962280,172.497269 284.631927,175.822113 272.117371,174.959335 
	C268.554230,174.713699 265.033295,173.070053 261.512329,173.133728 
	C246.216080,173.410339 233.232620,178.308411 225.100052,194.084686 
	C225.147919,181.534653 228.023880,172.032852 237.439240,164.812317 
	C248.004181,156.710159 260.419495,152.889191 272.435333,148.027725 
	C284.258209,143.244339 293.759521,135.726624 297.005463,122.917122 
	C301.284149,106.032196 294.301605,91.788216 284.752350,78.495270 
	C284.453949,78.079849 283.257812,78.309319 282.142761,78.207260 
	C282.142761,79.954254 282.091492,81.443649 282.150604,82.928665 
	C282.824432,99.860771 276.513611,113.284607 262.118500,122.567657 
	C255.498428,126.836769 248.551971,130.626358 242.116379,135.149628 
	C226.986633,145.783615 217.654358,159.761429 218.112091,179.024078 
	C218.134674,179.974152 217.704498,180.934967 217.485168,181.890793 
	C209.687866,160.734741 211.832642,141.116592 226.170410,123.600792 
	C233.490952,114.657623 240.103470,105.093292 242.836502,93.992607 
	C247.441727,75.287537 242.793915,58.075630 228.896988,44.638641 
	C221.205383,37.201614 211.837769,31.394461 202.808594,25.490387 
	C198.631409,22.758966 193.456985,21.552593 188.734695,19.654799 
	C192.335876,26.387478 196.619080,31.921104 200.363297,37.798119 
	C213.978897,59.169476 217.920120,81.721474 207.851288,105.719604 
	C203.624435,115.793900 198.677689,125.594582 194.967087,135.848541 
	C191.673538,144.949951 190.078217,154.417984 191.738037,164.381409 
	C193.854401,177.085358 201.443085,186.663406 208.325699,196.790237 
	C210.657288,200.220840 213.024231,204.016632 213.898041,207.971817 
	C216.043732,217.684113 207.818878,226.950485 199.414886,226.107590 
	C196.006012,225.765686 192.436096,226.071701 189.046692,226.680206 
	C180.298889,228.250732 172.734833,232.270584 166.704147,238.869904 
	C157.276825,229.976822 146.610474,225.269272 133.798874,225.958176 
	C132.058411,226.051773 130.153046,225.741180 128.538513,225.087753 
	C116.888000,220.372757 115.921288,206.697433 124.739807,196.032806 
	C136.432465,181.892380 145.243393,166.662872 140.926849,147.581619 
	C138.574707,137.184036 135.321838,126.671234 130.490540,117.225533 
	C122.515228,101.632950 117.093788,85.860611 120.265381,68.267014 
	C123.240997,51.760567 131.539734,37.717175 141.884201,24.769123 
	C142.852203,23.557491 143.502106,22.091722 144.801926,19.895300 
	C128.143707,24.822399 112.309540,34.613640 101.689705,47.167625 
	C93.835670,56.452084 88.350853,67.010689 88.136765,79.645821 
	C87.859039,96.037483 95.205338,109.521812 105.296005,121.405418 
	C116.736900,134.879150 121.479904,150.103699 119.979172,167.351028 
	C119.527054,172.546936 117.445290,177.601059 116.110039,182.720123 
	C115.782677,162.445312 107.049896,144.937790 88.155396,133.407578 
	C80.759682,128.894394 73.490494,124.126045 66.486877,119.029755 
	C56.770142,111.959221 52.027641,102.010056 51.115498,90.122902 
	C50.787651,85.850365 50.337814,81.587181 49.863842,76.455673 
	C40.619354,88.860092 33.897419,101.111710 35.043110,116.566864 
	C35.812206,126.941856 39.761600,135.708191 48.530239,140.838394 
	C58.076023,146.423279 68.560333,150.416916 78.683464,154.998260 
	C87.708160,159.082474 96.519073,163.494858 102.418007,171.863693 
	C106.461586,177.600357 108.693230,188.089294 107.277130,192.745850 
	C98.528069,176.888763 80.146835,170.012711 62.473385,174.414017 
	C50.842255,177.310593 30.413980,170.640335 23.953033,159.580231 
	C22.854717,157.700073 20.924454,156.305939 18.636597,153.910385 
	C17.354210,163.891342 18.584892,172.043884 22.113987,179.815186 
	C28.207399,193.233261 38.484352,198.379578 53.135395,195.067123 
	C60.852890,193.322296 68.500626,192.155823 76.481247,191.790451 
	C91.872612,191.085785 108.424034,208.692337 109.506493,224.278641 
	C107.579384,222.919205 105.973076,221.471756 104.109016,220.539963 
	C100.771751,218.871796 97.359177,216.493881 93.836693,216.218002 
	C83.271294,215.390518 72.832809,216.059784 62.798077,220.542725 
	C58.790707,222.332993 53.925522,222.975647 49.487698,222.848969 
	C42.817822,222.658554 36.180382,221.331848 29.089808,220.432526 
	C30.225294,222.791626 31.462772,225.883514 33.124634,228.727386 
	C41.411247,242.907898 54.060970,248.508652 69.307770,240.451385 
	C86.985977,231.109207 104.513527,229.410202 121.422295,242.049194 
	C115.599358,244.715439 109.250732,247.248764 103.269020,250.464569 
	C97.070953,253.796722 91.345627,258.000000 85.197159,261.434967 
	C79.228745,264.769348 72.744286,266.530701 65.779877,266.040314 
	C63.292831,265.865173 60.791084,265.898834 58.296047,265.837219 
	C60.109528,267.921814 61.856136,270.069397 63.749771,272.078430 
	C68.350006,276.959076 73.939171,279.613770 80.733917,280.062927 
	C94.621376,280.980927 104.781860,273.799500 112.494080,263.812408 
	C123.238770,249.898254 139.209305,248.901718 151.125076,257.585480 
	C156.728653,261.669159 161.573944,266.793335 167.012436,271.669800 
	C177.485886,258.436829 189.753891,247.833466 209.801010,254.282867 
M60.562771,75.191948 
	C60.194279,76.610092 59.609486,78.010612 59.492298,79.449226 
	C58.715874,88.980637 57.723446,98.762146 64.580315,106.654915 
	C68.784348,111.494064 73.541199,116.093224 78.786957,119.739670 
	C91.779007,128.770752 106.129669,136.187393 112.956078,151.769745 
	C113.054581,151.994583 114.115479,151.797806 114.910332,151.797806 
	C113.058434,140.351562 107.502594,131.240921 100.130943,122.916298 
	C93.758659,115.720238 87.321396,108.521492 84.056442,99.128822 
	C78.335693,82.671272 81.397591,66.837524 87.155884,51.181561 
	C88.620613,47.199184 90.533035,43.381462 92.776413,38.263832 
	C90.251732,39.732086 88.969650,40.373146 87.797821,41.175285 
	C75.514084,49.583801 65.610825,59.914616 60.562771,75.191948 
M262.575989,56.947090 
	C256.273132,50.409298 250.826828,42.742435 240.468079,39.465145 
	C248.628113,55.849689 253.564178,71.529297 251.169571,88.795006 
	C249.978439,97.383514 247.128159,105.158585 241.723557,112.050674 
	C235.454529,120.045097 229.162125,128.053207 223.480484,136.461243 
	C221.040909,140.071472 220.115005,144.704544 218.501373,148.872894 
	C219.072693,149.132446 219.644012,149.391983 220.215317,149.651535 
	C222.687210,146.455750 224.668213,142.656708 227.719955,140.173538 
	C238.298141,131.566116 249.327332,123.515884 260.032410,115.060539 
	C268.631897,108.268303 274.168518,99.950684 274.254852,88.286423 
	C274.342468,76.451653 269.583435,66.743019 262.575989,56.947090 
M76.970932,159.398483 
	C71.859329,157.690079 66.854347,155.473038 61.614849,154.374741 
	C49.104218,151.752304 39.628323,145.116959 33.663143,133.933151 
	C31.082989,129.095749 29.623119,123.660812 27.432995,117.916702 
	C26.411871,120.474548 25.293436,122.898560 24.466082,125.418152 
	C21.794992,133.552643 20.545979,141.898804 24.609110,149.808289 
	C30.610491,161.490860 40.829693,167.207977 53.705936,167.940262 
	C61.338505,168.374344 69.070312,167.461075 76.655334,168.200989 
	C82.189407,168.740875 87.550819,171.012558 93.004074,172.456055 
	C93.932037,172.701691 94.935005,172.663956 96.783875,172.841858 
	C91.522446,165.577393 84.580368,162.697174 76.970932,159.398483 
M275.613220,153.227386 
	C261.012421,157.618912 246.003723,161.204315 235.421204,173.580093 
	C237.973145,173.156601 240.203629,172.052322 242.479172,171.050323 
	C252.434296,166.666718 262.997498,168.467728 273.349152,167.946259 
	C278.890717,167.667084 284.672485,167.517471 289.858704,165.820587 
	C299.635254,162.621796 307.439453,156.386032 309.654633,145.789246 
	C311.466888,137.119919 310.126862,128.396881 306.649841,120.151909 
	C306.420563,119.608238 305.388458,119.403137 304.621857,118.981148 
	C302.033630,135.605759 292.716431,146.758972 275.613220,153.227386 
M274.792694,215.850296 
	C286.450592,219.523590 296.716888,217.431305 305.264130,208.416504 
	C309.684052,203.754791 311.657410,197.497818 310.073242,193.021530 
	C299.264252,201.650497 287.441681,202.581909 274.283508,199.300201 
	C267.028717,197.490814 259.063965,197.724487 251.493057,198.203323 
	C243.269577,198.723434 232.701630,206.781342 232.008408,212.397781 
	C237.367172,211.628311 243.156845,209.707169 248.703613,210.253265 
	C257.245758,211.094223 265.621307,213.627167 274.792694,215.850296 
M78.186417,210.505890 
	C85.429108,210.505890 92.671806,210.505890 100.142616,210.505890 
	C99.615616,209.741867 98.885902,208.347992 97.852066,207.237198 
	C87.495056,196.109055 74.467110,195.196686 60.995525,198.790298 
	C47.895405,202.284836 35.706486,202.346603 24.321533,194.089249 
	C23.847685,193.745575 23.055386,193.840973 22.401424,193.730118 
	C21.817533,201.988754 28.394094,211.928253 36.030880,214.950150 
	C43.964424,218.089462 51.692307,218.234787 59.806774,215.315430 
	C65.465302,213.279663 71.522148,212.350998 78.186417,210.505890 
M271.334198,248.124741 
	C265.949554,246.264755 260.383087,244.805710 255.217270,242.463211 
	C243.664764,237.224579 232.108307,236.409393 220.271820,240.690201 
	C220.271820,241.412399 220.144211,241.834167 220.300644,242.050705 
	C220.558868,242.408127 220.971237,242.825012 221.369202,242.885788 
	C233.078552,244.673859 242.372589,251.355881 252.228439,257.268066 
	C260.845673,262.437286 270.739319,263.573669 279.898773,257.977417 
	C284.083221,255.420776 288.508881,252.247665 288.952576,247.141235 
	C283.002625,247.629593 277.553467,248.076843 271.334198,248.124741 
M46.177662,246.564041 
	C45.270782,246.426559 44.363907,246.289093 41.800285,245.900467 
	C45.081821,249.966522 47.044411,253.435791 49.922878,255.780884 
	C60.925686,264.744812 74.851326,261.729401 84.314690,255.213120 
	C91.680214,250.141373 99.062897,245.440628 108.066452,243.883453 
	C109.422699,243.648895 110.638298,242.601151 111.918961,241.929565 
	C111.927650,241.448547 111.936340,240.967545 111.945030,240.486526 
	C107.565247,239.666351 103.212852,238.629227 98.799873,238.071869 
	C90.049141,236.966660 82.359497,240.380203 74.785210,244.151932 
	C65.847923,248.602371 56.653374,250.696655 46.177662,246.564041 
z"/>
<path fill="#CAA933" opacity="1.000000" stroke="none" 
	d="
M157.468643,325.000000 
	C156.705627,312.805267 156.323212,300.610992 156.264069,288.415131 
	C156.258636,287.294922 158.281113,285.235077 159.424149,285.190033 
	C166.871460,284.896545 174.335999,285.039215 182.440216,285.039215 
	C180.248199,295.727386 171.830154,292.089813 165.471893,293.312073 
	C165.247391,295.359619 165.020721,297.426941 164.751541,299.882080 
	C168.527878,299.882080 172.442673,299.882080 176.740295,299.882080 
	C176.740295,302.300537 176.740295,304.343170 176.740295,306.845886 
	C172.924530,306.845886 168.998901,306.845886 165.056763,306.845886 
	C165.056763,310.313599 165.056763,313.332458 165.056763,317.038788 
	C169.041611,317.038788 172.642044,316.955566 176.237000,317.060699 
	C180.352264,317.181061 182.124573,319.751099 181.708710,324.664398 
	C173.979095,325.000000 165.958191,325.000000 157.468643,325.000000 
z"/>
<path fill="#C8A833" opacity="1.000000" stroke="none" 
	d="
M123.399994,325.000000 
	C123.000000,311.902191 123.000000,298.804382 123.000000,284.258118 
	C130.161423,291.855530 136.599152,298.685211 144.128693,306.673157 
	C144.128693,300.878693 144.039902,296.496582 144.152573,292.119659 
	C144.276154,287.319336 146.590622,285.289734 151.692963,285.275818 
	C151.692963,298.216888 151.692963,311.158417 151.846481,324.549957 
	C151.250000,325.000000 150.500000,325.000000 149.765167,324.822327 
	C143.641830,317.527618 137.503326,310.410645 130.597183,302.403656 
	C129.324326,310.996674 132.189865,318.685730 127.000000,325.000000 
	C125.933327,325.000000 124.866661,325.000000 123.399994,325.000000 
z"/>
<path fill="#C8A833" opacity="1.000000" stroke="none" 
	d="
M97.463181,325.000000 
	C96.601440,324.289642 96.379738,323.229004 95.776360,322.924377 
	C90.928070,320.476776 89.215042,316.285339 89.154312,311.225616 
	C89.070343,304.228638 88.975563,297.223785 89.244110,290.236145 
	C89.311218,288.490051 90.751144,286.796753 91.560104,285.079193 
	C93.418831,286.840546 96.676720,288.454742 96.880295,290.390167 
	C97.556282,296.817047 97.033623,303.361420 97.160454,309.857025 
	C97.285378,316.255035 102.467926,319.582428 107.545761,315.930328 
	C109.727173,314.361389 110.634911,310.185913 110.967697,307.071442 
	C111.513390,301.964417 111.063393,296.756073 111.134651,291.591858 
	C111.202087,286.704132 113.545883,284.870239 119.105911,285.546997 
	C119.105911,294.463135 119.353256,303.442566 119.020096,312.400421 
	C118.793045,318.504913 114.197174,321.712433 109.692169,324.733032 
	C105.975456,325.000000 101.950912,325.000000 97.463181,325.000000 
z"/>
<path fill="#C8A833" opacity="1.000000" stroke="none" 
	d="
M209.437500,325.000000 
	C211.181183,319.408325 213.207504,313.749939 215.580872,308.241058 
	C218.913422,300.505859 222.503860,292.881744 226.443314,284.197632 
	C228.964539,289.798859 231.220383,294.705231 233.387405,299.650543 
	C236.320526,306.344177 239.259399,313.037598 242.016830,319.804016 
	C242.563354,321.145111 242.301147,322.815735 242.705933,324.667206 
	C241.285645,325.000000 239.571289,325.000000 237.787277,324.773987 
	C235.793350,322.063751 234.375488,318.582611 231.842834,317.296021 
	C225.980652,314.318085 218.906189,318.147522 216.000000,325.000000 
	C213.958328,325.000000 211.916672,325.000000 209.437500,325.000000 
M229.515762,309.786285 
	C228.628708,307.770477 227.741653,305.754639 226.365341,302.627014 
	C224.794739,305.867523 223.930725,307.650146 222.798691,309.985779 
	C225.228500,309.985779 226.996277,309.985779 229.515762,309.786285 
z"/>
<path fill="#C8A933" opacity="1.000000" stroke="none" 
	d="
M188.464645,325.000000 
	C187.917023,324.416351 187.993210,323.741119 187.720245,323.266815 
	C186.995956,322.008240 186.120895,320.836456 185.305817,319.630127 
	C187.048965,318.694397 188.708618,317.471497 190.566772,316.931244 
	C191.672821,316.609680 193.166641,317.765656 194.352463,317.543610 
	C196.594864,317.123627 198.740891,316.189148 200.926941,315.468445 
	C199.972427,313.440948 199.489685,310.895142 197.958405,309.501312 
	C195.329544,307.108429 191.998734,305.502472 189.048874,303.442657 
	C184.979065,300.600800 184.049835,296.413452 185.719528,292.166504 
	C187.365616,287.979523 190.187057,284.446716 195.622726,285.016357 
	C198.707108,285.339600 201.905579,285.228394 204.836746,286.067291 
	C206.179611,286.451599 207.002151,288.654053 208.060669,290.031952 
	C206.160767,290.922150 204.335907,292.183777 202.337723,292.587524 
	C200.676788,292.923096 198.788483,291.969574 197.045364,292.116058 
	C195.751755,292.224792 193.603729,293.030396 193.479248,293.793610 
	C193.259415,295.141327 193.861282,297.213318 194.883194,298.059601 
	C197.637482,300.340454 200.810547,302.111298 203.788239,304.127625 
	C211.298264,309.213013 211.047745,318.158722 203.316101,323.010498 
	C202.634964,323.437958 202.029068,323.985291 201.694092,324.738464 
	C197.643097,325.000000 193.286194,325.000000 188.464645,325.000000 
z"/>
<path fill="#020100" opacity="1.000000" stroke="none" 
	d="
M127.468575,325.000000 
	C132.189865,318.685730 129.324326,310.996674 130.597183,302.403656 
	C137.503326,310.410645 143.641830,317.527618 149.390167,324.822327 
	C141.979050,325.000000 134.958099,325.000000 127.468575,325.000000 
z"/>
<path fill="#020100" opacity="1.000000" stroke="none" 
	d="
M216.468536,325.000000 
	C218.906189,318.147522 225.980652,314.318085 231.842834,317.296021 
	C234.375488,318.582611 235.793350,322.063751 237.358810,324.773987 
	C230.312363,325.000000 223.624710,325.000000 216.468536,325.000000 
z"/>
<path fill="#CCAB32" opacity="1.000000" stroke="none" 
	d="
M209.423798,254.169937 
	C189.753891,247.833466 177.485886,258.436829 167.012436,271.669800 
	C161.573944,266.793335 156.728653,261.669159 151.125076,257.585480 
	C139.209305,248.901718 123.238770,249.898254 112.494080,263.812408 
	C104.781860,273.799500 94.621376,280.980927 80.733917,280.062927 
	C73.939171,279.613770 68.350006,276.959076 63.749771,272.078430 
	C61.856136,270.069397 60.109528,267.921814 58.296047,265.837219 
	C60.791084,265.898834 63.292831,265.865173 65.779877,266.040314 
	C72.744286,266.530701 79.228745,264.769348 85.197159,261.434967 
	C91.345627,258.000000 97.070953,253.796722 103.269020,250.464569 
	C109.250732,247.248764 115.599358,244.715439 121.422295,242.049194 
	C104.513527,229.410202 86.985977,231.109207 69.307770,240.451385 
	C54.060970,248.508652 41.411247,242.907898 33.124634,228.727386 
	C31.462772,225.883514 30.225294,222.791626 29.089808,220.432526 
	C36.180382,221.331848 42.817822,222.658554 49.487698,222.848969 
	C53.925522,222.975647 58.790707,222.332993 62.798077,220.542725 
	C72.832809,216.059784 83.271294,215.390518 93.836693,216.218002 
	C97.359177,216.493881 100.771751,218.871796 104.109016,220.539963 
	C105.973076,221.471756 107.579384,222.919205 109.506493,224.278641 
	C108.424034,208.692337 91.872612,191.085785 76.481247,191.790451 
	C68.500626,192.155823 60.852890,193.322296 53.135395,195.067123 
	C38.484352,198.379578 28.207399,193.233261 22.113987,179.815186 
	C18.584892,172.043884 17.354210,163.891342 18.636597,153.910385 
	C20.924454,156.305939 22.854717,157.700073 23.953033,159.580231 
	C30.413980,170.640335 50.842255,177.310593 62.473385,174.414017 
	C80.146835,170.012711 98.528069,176.888763 107.277130,192.745850 
	C108.693230,188.089294 106.461586,177.600357 102.418007,171.863693 
	C96.519073,163.494858 87.708160,159.082474 78.683464,154.998260 
	C68.560333,150.416916 58.076023,146.423279 48.530239,140.838394 
	C39.761600,135.708191 35.812206,126.941856 35.043110,116.566864 
	C33.897419,101.111710 40.619354,88.860092 49.863842,76.455673 
	C50.337814,81.587181 50.787651,85.850365 51.115498,90.122902 
	C52.027641,102.010056 56.770142,111.959221 66.486877,119.029755 
	C73.490494,124.126045 80.759682,128.894394 88.155396,133.407578 
	C107.049896,144.937790 115.782677,162.445312 116.110039,182.720123 
	C117.445290,177.601059 119.527054,172.546936 119.979172,167.351028 
	C121.479904,150.103699 116.736900,134.879150 105.296005,121.405418 
	C95.205338,109.521812 87.859039,96.037483 88.136765,79.645821 
	C88.350853,67.010689 93.835670,56.452084 101.689705,47.167625 
	C112.309540,34.613640 128.143707,24.822399 144.801926,19.895300 
	C143.502106,22.091722 142.852203,23.557491 141.884201,24.769123 
	C131.539734,37.717175 123.240997,51.760567 120.265381,68.267014 
	C117.093788,85.860611 122.515228,101.632950 130.490540,117.225533 
	C135.321838,126.671234 138.574707,137.184036 140.926849,147.581619 
	C145.243393,166.662872 136.432465,181.892380 124.739807,196.032806 
	C115.921288,206.697433 116.888000,220.372757 128.538513,225.087753 
	C130.153046,225.741180 132.058411,226.051773 133.798874,225.958176 
	C146.610474,225.269272 157.276825,229.976822 166.704147,238.869904 
	C172.734833,232.270584 180.298889,228.250732 189.046692,226.680206 
	C192.436096,226.071701 196.006012,225.765686 199.414886,226.107590 
	C207.818878,226.950485 216.043732,217.684113 213.898041,207.971817 
	C213.024231,204.016632 210.657288,200.220840 208.325699,196.790237 
	C201.443085,186.663406 193.854401,177.085358 191.738037,164.381409 
	C190.078217,154.417984 191.673538,144.949951 194.967087,135.848541 
	C198.677689,125.594582 203.624435,115.793900 207.851288,105.719604 
	C217.920120,81.721474 213.978897,59.169476 200.363297,37.798119 
	C196.619080,31.921104 192.335876,26.387478 188.734695,19.654799 
	C193.456985,21.552593 198.631409,22.758966 202.808594,25.490387 
	C211.837769,31.394461 221.205383,37.201614 228.896988,44.638641 
	C242.793915,58.075630 247.441727,75.287537 242.836502,93.992607 
	C240.103470,105.093292 233.490952,114.657623 226.170410,123.600792 
	C211.832642,141.116592 209.687866,160.734741 217.485168,181.890793 
	C217.704498,180.934967 218.134674,179.974152 218.112091,179.024078 
	C217.654358,159.761429 226.986633,145.783615 242.116379,135.149628 
	C248.551971,130.626358 255.498428,126.836769 262.118500,122.567657 
	C276.513611,113.284607 282.824432,99.860771 282.150604,82.928665 
	C282.091492,81.443649 282.142761,79.954254 282.142761,78.207260 
	C283.257812,78.309319 284.453949,78.079849 284.752350,78.495270 
	C294.301605,91.788216 301.284149,106.032196 297.005463,122.917122 
	C293.759521,135.726624 284.258209,143.244339 272.435333,148.027725 
	C260.419495,152.889191 248.004181,156.710159 237.439240,164.812317 
	C228.023880,172.032852 225.147919,181.534653 225.100052,194.084686 
	C233.232620,178.308411 246.216080,173.410339 261.512329,173.133728 
	C265.033295,173.070053 268.554230,174.713699 272.117371,174.959335 
	C284.631927,175.822113 295.962280,172.497269 305.431335,164.116684 
	C308.313507,161.565842 310.407959,158.124954 313.810425,153.921417 
	C314.348541,164.318314 314.738281,173.106049 310.137451,181.680099 
	C302.884277,195.197189 289.832306,198.865921 275.582977,194.231934 
	C265.939514,191.095810 256.230896,190.711533 246.462784,193.906052 
	C237.224350,196.927307 231.552979,203.764862 227.283478,211.922028 
	C225.292740,215.725464 224.112595,219.953156 223.506851,224.531845 
	C225.651764,222.914948 227.633301,220.995972 229.969376,219.732559 
	C241.091385,213.717499 252.816696,214.550644 264.017273,218.639984 
	C277.275665,223.480667 290.118011,225.983398 304.518890,218.314102 
	C303.442780,221.334625 302.990112,223.386551 302.032227,225.166595 
	C295.984528,236.404907 288.835968,245.426270 274.211823,243.807434 
	C269.009521,243.231567 264.070038,240.275604 259.012238,238.401550 
	C251.785019,235.723618 244.744217,232.957626 236.699692,232.776810 
	C229.234894,232.609024 223.450684,236.298233 217.062531,238.715652 
	C215.012665,239.491394 213.134491,240.720886 211.712555,241.463486 
	C221.664993,246.960678 231.756912,252.259109 241.569870,258.031738 
	C251.609070,263.937469 261.901550,268.060944 275.007751,264.980530 
	C273.601196,267.173157 272.960785,268.601929 271.948883,269.682953 
	C260.310852,282.115601 246.197525,283.764008 231.961670,274.171631 
	C228.835144,272.064941 226.187408,269.237091 223.368469,266.686859 
	C218.824448,262.576019 214.321381,258.419891 209.423798,254.169937 
z"/>
<path fill="#CEAB32" opacity="1.000000" stroke="none" 
	d="
M159.351883,211.053665 
	C159.270462,209.651093 159.189056,208.248535 159.122086,206.085480 
	C159.231949,204.857742 159.327362,204.390503 159.627609,203.711273 
	C159.695114,201.698151 159.557785,199.897049 159.334747,197.641754 
	C159.300659,194.416672 159.352295,191.645767 159.534454,188.561615 
	C159.806015,185.272476 159.947037,182.296585 160.129272,178.868622 
	C160.259796,176.610352 160.349121,174.804169 160.621124,172.902344 
	C160.681549,172.206085 160.559250,171.605453 160.352203,170.552551 
	C160.321777,167.324127 160.376099,164.548004 160.556244,161.434906 
	C160.882751,154.438187 161.083405,147.778427 161.250778,140.648865 
	C161.128983,136.112213 161.040482,132.045349 161.067093,127.992935 
	C161.182205,128.007385 161.413147,128.029633 161.459686,127.914864 
	C161.566895,127.552132 161.539566,127.313248 161.341599,126.621384 
	C161.313858,122.107521 161.368774,118.055710 161.688553,113.799545 
	C161.992996,111.416435 162.032593,109.237686 162.114777,106.588303 
	C162.226227,99.402550 162.295090,92.687424 162.436035,85.863434 
	C162.592789,85.487465 162.545776,85.244568 162.304413,84.589645 
	C162.145935,82.102188 162.050095,80.050972 162.037231,77.605560 
	C162.219360,76.144951 162.318497,75.078552 162.665741,73.975723 
	C163.304962,73.545128 163.696091,73.150948 164.087219,72.756767 
	C163.533234,72.500404 162.979263,72.244049 162.333496,71.565964 
	C162.280624,69.420235 162.319550,67.696220 162.549255,65.812393 
	C162.905792,64.793877 163.071579,63.935188 163.224457,62.623825 
	C163.268021,59.759869 163.324524,57.348595 163.516785,54.680748 
	C163.568665,53.313087 163.484818,52.201992 163.330002,50.659508 
	C163.160965,48.485092 163.062881,46.742073 163.049927,44.538414 
	C163.529007,38.381443 163.922943,32.685108 164.592529,26.860666 
	C166.212860,26.826235 167.557541,26.919910 168.966095,27.459846 
	C169.327820,31.306330 169.625671,34.706551 169.949646,38.568073 
	C169.925232,46.695114 169.874664,54.360855 169.688339,62.255531 
	C169.642776,63.313629 169.733002,64.142792 169.888794,65.436264 
	C169.983246,70.910469 170.012115,75.920349 170.029510,81.327667 
	C170.028793,82.521042 170.039581,83.316994 170.167206,84.433807 
	C170.577881,85.836266 170.871689,86.917862 171.098984,88.463966 
	C171.299515,105.958344 171.566574,122.988205 171.770569,140.131470 
	C171.628616,140.506195 171.668579,140.750565 171.895203,141.321014 
	C172.028229,142.124695 172.093460,142.585373 172.075974,143.029846 
	C171.993271,143.013626 171.826096,142.992233 171.690155,143.223434 
	C171.645966,144.292618 171.737717,145.130600 171.896637,146.363922 
	C172.007339,147.827271 172.050903,148.895248 171.941849,150.227722 
	C172.128418,152.316620 172.467606,154.141022 172.879349,156.423401 
	C172.911591,160.587097 172.871277,164.292816 172.538239,168.183807 
	C170.459305,170.755737 170.263351,173.001389 172.897827,175.465393 
	C172.917114,181.296051 172.872238,186.663025 172.661957,192.389557 
	C172.942902,196.182999 173.389236,199.616867 173.918777,203.027283 
	C174.001968,203.003799 174.165817,202.948608 174.099731,203.404129 
	C174.106140,206.926682 174.178604,209.993713 174.251099,213.060745 
	C174.208954,215.342209 173.892349,217.659332 174.183167,219.897537 
	C174.747147,224.238052 173.305176,227.481873 169.202820,229.636703 
	C167.772552,230.206421 166.816254,230.966858 165.859940,231.727295 
	C165.665848,231.657379 165.471771,231.587463 164.997726,231.071259 
	C164.520264,230.407547 164.302216,230.213211 164.063614,230.041946 
	C163.118973,229.200897 162.174316,228.359848 161.046738,226.905426 
	C160.357742,224.884903 159.851654,223.477737 159.345581,222.070572 
	C159.292984,219.320053 159.240372,216.569550 159.367310,213.191544 
	C159.481857,212.060593 159.416870,211.557129 159.351883,211.053665 
z"/>
<path fill="#C9A831" opacity="1.000000" stroke="none" 
	d="
M157.957901,205.967438 
	C157.542709,211.833893 157.127502,217.700333 156.685745,223.942001 
	C152.109680,222.923050 147.513367,222.056152 143.042221,220.758148 
	C142.247269,220.527359 141.408096,218.436432 141.544205,217.320953 
	C142.967667,205.654526 144.863785,194.040680 146.075455,182.354858 
	C147.398727,169.593002 148.185272,156.774033 149.119934,143.973679 
	C150.175797,129.513519 151.123947,115.045525 152.141464,100.582512 
	C153.123703,86.620941 154.030594,72.652916 155.167450,58.703762 
	C156.006058,48.413727 157.161209,38.149494 158.568665,27.479324 
	C159.924393,27.394314 160.886795,27.703747 161.909698,28.476337 
	C162.039093,34.293045 162.107986,39.646599 162.112747,45.445992 
	C161.756577,56.594265 161.464554,67.296692 161.108582,78.444992 
	C160.664429,95.250618 160.284210,111.610367 159.570648,128.239563 
	C159.208633,139.339020 159.179977,150.169067 158.946411,161.373444 
	C158.499741,163.514328 158.058685,165.279633 158.047989,167.047562 
	C157.969574,180.020554 157.977325,192.994080 157.957901,205.967438 
z"/>
<path fill="#C9A831" opacity="1.000000" stroke="none" 
	d="
M171.914825,25.942921 
	C172.982635,26.779791 174.881104,27.523006 174.987671,28.468262 
	C175.891327,36.482674 176.579651,44.526436 177.120102,52.575661 
	C178.203583,68.712334 179.126740,84.859703 180.167206,100.999359 
	C180.771683,110.375664 181.369141,119.754517 182.159134,129.116257 
	C183.376266,143.539993 184.796188,157.946548 186.051987,172.367188 
	C186.823792,181.229797 187.273300,190.123566 188.198471,198.968750 
	C188.923508,205.900711 190.156555,212.779541 191.235519,220.172668 
	C186.942932,221.310944 181.836349,222.665070 176.369827,224.114655 
	C176.192551,220.292664 176.032715,216.847015 175.531555,212.696167 
	C175.106995,208.993683 175.023788,205.996399 175.022415,202.536728 
	C174.717834,182.382889 174.331436,162.691437 174.027008,142.564545 
	C173.388077,124.085365 172.667175,106.041626 172.026398,87.603287 
	C172.083771,86.139725 172.061020,85.070770 172.092560,83.535797 
	C171.759933,68.048340 171.373032,53.026913 171.071396,37.558739 
	C171.462326,33.391834 171.768005,29.671679 172.035141,25.927876 
	C171.996597,25.904228 171.914825,25.942921 171.914825,25.942921 
z"/>
<path fill="#CBAA33" opacity="1.000000" stroke="none" 
	d="
M60.793755,74.850983 
	C65.610825,59.914616 75.514084,49.583801 87.797821,41.175285 
	C88.969650,40.373146 90.251732,39.732086 92.776413,38.263832 
	C90.533035,43.381462 88.620613,47.199184 87.155884,51.181561 
	C81.397591,66.837524 78.335693,82.671272 84.056442,99.128822 
	C87.321396,108.521492 93.758659,115.720238 100.130943,122.916298 
	C107.502594,131.240921 113.058434,140.351562 114.910332,151.797806 
	C114.115479,151.797806 113.054581,151.994583 112.956078,151.769745 
	C106.129669,136.187393 91.779007,128.770752 78.786957,119.739670 
	C73.541199,116.093224 68.784348,111.494064 64.580315,106.654915 
	C57.723446,98.762146 58.715874,88.980637 59.492298,79.449226 
	C59.609486,78.010612 60.194279,76.610092 60.793755,74.850983 
z"/>
<path fill="#CBAA33" opacity="1.000000" stroke="none" 
	d="
M262.833923,57.215446 
	C269.583435,66.743019 274.342468,76.451653 274.254852,88.286423 
	C274.168518,99.950684 268.631897,108.268303 260.032410,115.060539 
	C249.327332,123.515884 238.298141,131.566116 227.719955,140.173538 
	C224.668213,142.656708 222.687210,146.455750 220.215317,149.651535 
	C219.644012,149.391983 219.072693,149.132446 218.501373,148.872894 
	C220.115005,144.704544 221.040909,140.071472 223.480484,136.461243 
	C229.162125,128.053207 235.454529,120.045097 241.723557,112.050674 
	C247.128159,105.158585 249.978439,97.383514 251.169571,88.795006 
	C253.564178,71.529297 248.628113,55.849689 240.468079,39.465145 
	C250.826828,42.742435 256.273132,50.409298 262.833923,57.215446 
z"/>
<path fill="#CBAA33" opacity="1.000000" stroke="none" 
	d="
M77.296585,159.619614 
	C84.580368,162.697174 91.522446,165.577393 96.783875,172.841858 
	C94.935005,172.663956 93.932037,172.701691 93.004074,172.456055 
	C87.550819,171.012558 82.189407,168.740875 76.655334,168.200989 
	C69.070312,167.461075 61.338505,168.374344 53.705936,167.940262 
	C40.829693,167.207977 30.610491,161.490860 24.609110,149.808289 
	C20.545979,141.898804 21.794992,133.552643 24.466082,125.418152 
	C25.293436,122.898560 26.411871,120.474548 27.432995,117.916702 
	C29.623119,123.660812 31.082989,129.095749 33.663143,133.933151 
	C39.628323,145.116959 49.104218,151.752304 61.614849,154.374741 
	C66.854347,155.473038 71.859329,157.690079 77.296585,159.619614 
z"/>
<path fill="#CBAA33" opacity="1.000000" stroke="none" 
	d="
M276.002380,153.143524 
	C292.716431,146.758972 302.033630,135.605759 304.621857,118.981148 
	C305.388458,119.403137 306.420563,119.608238 306.649841,120.151909 
	C310.126862,128.396881 311.466888,137.119919 309.654633,145.789246 
	C307.439453,156.386032 299.635254,162.621796 289.858704,165.820587 
	C284.672485,167.517471 278.890717,167.667084 273.349152,167.946259 
	C262.997498,168.467728 252.434296,166.666718 242.479172,171.050323 
	C240.203629,172.052322 237.973145,173.156601 235.421204,173.580093 
	C246.003723,161.204315 261.012421,157.618912 276.002380,153.143524 
z"/>
<path fill="#CCAB32" opacity="1.000000" stroke="none" 
	d="
M274.430115,215.646301 
	C265.621307,213.627167 257.245758,211.094223 248.703613,210.253265 
	C243.156845,209.707169 237.367172,211.628311 232.008408,212.397781 
	C232.701630,206.781342 243.269577,198.723434 251.493057,198.203323 
	C259.063965,197.724487 267.028717,197.490814 274.283508,199.300201 
	C287.441681,202.581909 299.264252,201.650497 310.073242,193.021530 
	C311.657410,197.497818 309.684052,203.754791 305.264130,208.416504 
	C296.716888,217.431305 286.450592,219.523590 274.430115,215.646301 
z"/>
<path fill="#CCAB32" opacity="1.000000" stroke="none" 
	d="
M77.793747,210.716858 
	C71.522148,212.350998 65.465302,213.279663 59.806774,215.315430 
	C51.692307,218.234787 43.964424,218.089462 36.030880,214.950150 
	C28.394094,211.928253 21.817533,201.988754 22.401424,193.730118 
	C23.055386,193.840973 23.847685,193.745575 24.321533,194.089249 
	C35.706486,202.346603 47.895405,202.284836 60.995525,198.790298 
	C74.467110,195.196686 87.495056,196.109055 97.852066,207.237198 
	C98.885902,208.347992 99.615616,209.741867 100.142616,210.505890 
	C92.671806,210.505890 85.429108,210.505890 77.793747,210.716858 
z"/>
<path fill="#CBAA33" opacity="1.000000" stroke="none" 
	d="
M271.719269,248.324402 
	C277.553467,248.076843 283.002625,247.629593 288.952576,247.141235 
	C288.508881,252.247665 284.083221,255.420776 279.898773,257.977417 
	C270.739319,263.573669 260.845673,262.437286 252.228439,257.268066 
	C242.372589,251.355881 233.078552,244.673859 221.369202,242.885788 
	C220.971237,242.825012 220.558868,242.408127 220.300644,242.050705 
	C220.144211,241.834167 220.271820,241.412399 220.271820,240.690201 
	C232.108307,236.409393 243.664764,237.224579 255.217270,242.463211 
	C260.383087,244.805710 265.949554,246.264755 271.719269,248.324402 
z"/>
<path fill="#CCAA33" opacity="1.000000" stroke="none" 
	d="
M46.534271,246.734314 
	C56.653374,250.696655 65.847923,248.602371 74.785210,244.151932 
	C82.359497,240.380203 90.049141,236.966660 98.799873,238.071869 
	C103.212852,238.629227 107.565247,239.666351 111.945030,240.486526 
	C111.936340,240.967545 111.927650,241.448547 111.918961,241.929565 
	C110.638298,242.601151 109.422699,243.648895 108.066452,243.883453 
	C99.062897,245.440628 91.680214,250.141373 84.314690,255.213120 
	C74.851326,261.729401 60.925686,264.744812 49.922878,255.780884 
	C47.044411,253.435791 45.081821,249.966522 41.800285,245.900467 
	C44.363907,246.289093 45.270782,246.426559 46.534271,246.734314 
z"/>
<path fill="#BDA031" opacity="1.000000" stroke="none" 
	d="
M161.849197,28.013184 
	C160.886795,27.703747 159.924393,27.394314 158.657242,27.055868 
	C158.922318,26.564276 159.492142,26.101694 160.040207,25.656776 
	C156.999252,23.357464 157.470383,20.406115 159.223801,17.489798 
	C161.466721,13.759297 163.919403,10.154922 166.563309,6.059999 
	C168.389664,9.334351 170.296249,12.770329 172.221130,16.196030 
	C173.185989,17.913200 174.771408,19.548052 174.965454,21.340389 
	C175.099747,22.580687 173.335068,24.026598 172.166870,25.661777 
	C171.914825,25.942921 171.996597,25.904228 171.732010,25.933277 
	C170.612350,26.312748 169.757278,26.663170 168.902206,27.013588 
	C167.557541,26.919910 166.212860,26.826235 164.231644,26.848091 
	C163.013138,27.313478 162.431168,27.663332 161.849197,28.013184 
z"/>
<path fill="#2C240B" opacity="1.000000" stroke="none" 
	d="
M158.204529,205.984863 
	C157.977325,192.994080 157.969574,180.020554 158.047989,167.047562 
	C158.058685,165.279633 158.499741,163.514328 159.150330,161.372650 
	C159.559143,160.997482 159.966965,160.995575 160.082138,161.190063 
	C160.197311,161.384552 160.430420,161.771881 160.430420,161.771881 
	C160.376099,164.548004 160.321777,167.324127 160.273102,170.881485 
	C160.331985,172.107819 160.385208,172.552902 160.438431,172.998001 
	C160.349121,174.804169 160.259796,176.610352 159.809357,179.090042 
	C159.433456,182.800659 159.418686,185.837769 159.403931,188.874863 
	C159.352295,191.645767 159.300659,194.416672 159.250946,198.051697 
	C159.309509,200.584961 159.366150,202.254120 159.422791,203.923264 
	C159.327362,204.390503 159.231949,204.857742 159.040985,205.670547 
	C158.945450,206.016113 158.451157,206.002274 158.204529,205.984863 
z"/>
<path fill="#2B240A" opacity="1.000000" stroke="none" 
	d="
M174.940582,202.999115 
	C175.023788,205.996399 175.106995,208.993683 175.190643,212.437958 
	C175.191101,212.884949 174.732681,213.034790 174.491882,213.047760 
	C174.178604,209.993713 174.106140,206.926682 174.293427,203.416870 
	C174.553192,202.974106 174.940598,202.999115 174.940582,202.999115 
z"/>
<path fill="#CBAA31" opacity="1.000000" stroke="none" 
	d="
M166.121185,231.818085 
	C166.816254,230.966858 167.772552,230.206421 168.864807,229.662415 
	C168.127975,230.555542 167.255203,231.232208 166.121185,231.818085 
z"/>
<path fill="#CBAA31" opacity="1.000000" stroke="none" 
	d="
M159.259277,222.419983 
	C159.851654,223.477737 160.357742,224.884903 160.926910,226.609634 
	C160.384323,225.541260 159.778656,224.155334 159.259277,222.419983 
z"/>
<path fill="#CBAA31" opacity="1.000000" stroke="none" 
	d="
M159.273056,211.361206 
	C159.416870,211.557129 159.481857,212.060593 159.453918,212.740295 
	C159.305405,212.500610 159.249817,212.084671 159.273056,211.361206 
z"/>
<path fill="#CBAA31" opacity="1.000000" stroke="none" 
	d="
M164.123657,230.275024 
	C164.302216,230.213211 164.520264,230.407547 164.858917,230.794708 
	C164.648849,230.953720 164.376724,230.801605 164.123657,230.275024 
z"/>
<path fill="#0A0903" opacity="1.000000" stroke="none" 
	d="
M229.139908,309.886047 
	C226.996277,309.985779 225.228500,309.985779 222.798691,309.985779 
	C223.930725,307.650146 224.794739,305.867523 226.365341,302.627014 
	C227.741653,305.754639 228.628708,307.770477 229.139908,309.886047 
z"/>
<path fill="#2A250A" opacity="1.000000" stroke="none" 
	d="
M175.022430,202.536728 
	C174.940598,202.999115 174.553192,202.974106 174.359497,202.961365 
	C174.165817,202.948608 174.001968,203.003799 173.984634,202.584320 
	C173.587341,198.786545 173.207367,195.408264 172.827393,192.029984 
	C172.872238,186.663025 172.917114,181.296051 172.960052,175.030914 
	C172.915741,172.087997 172.873337,170.043274 172.830963,167.998550 
	C172.871277,164.292816 172.911591,160.587097 172.941711,156.028046 
	C172.652481,153.437561 172.373474,151.700394 172.094467,149.963242 
	C172.050903,148.895248 172.007339,147.827271 171.960754,145.994263 
	C171.913849,144.483582 171.869965,143.737915 171.826096,142.992233 
	C171.826096,142.992233 171.993271,143.013626 172.373672,143.021545 
	C173.151062,143.019623 173.548050,143.009796 173.945038,142.999985 
	C174.331436,162.691437 174.717834,182.382889 175.022430,202.536728 
z"/>
<path fill="#2B240A" opacity="1.000000" stroke="none" 
	d="
M174.027008,142.564545 
	C173.548050,143.009796 173.151062,143.019623 172.456375,143.037750 
	C172.093460,142.585373 172.028229,142.124695 171.945709,141.081390 
	C171.928436,140.498764 171.833633,140.018066 171.833618,140.018066 
	C171.566574,122.988205 171.299515,105.958344 171.294189,88.463516 
	C171.555908,87.998550 171.946289,87.997887 171.946289,87.997887 
	C172.667175,106.041626 173.388077,124.085365 174.027008,142.564545 
z"/>
<path fill="#2B240A" opacity="1.000000" stroke="none" 
	d="
M159.904007,127.970123 
	C160.284210,111.610367 160.664429,95.250618 161.304016,78.445312 
	C161.563385,77.999771 161.954254,77.999756 161.954254,77.999756 
	C162.050095,80.050972 162.145935,82.102188 162.242920,84.826042 
	C162.244080,85.498680 162.363937,85.972305 162.363953,85.972305 
	C162.295090,92.687424 162.226227,99.402550 161.792328,106.821930 
	C161.426086,109.685425 161.424896,111.844666 161.423706,114.003899 
	C161.368774,118.055710 161.313858,122.107521 161.280685,126.857132 
	C161.302444,127.554924 161.413147,128.029633 161.413147,128.029633 
	C161.413147,128.029633 161.182205,128.007385 160.805115,127.990936 
	C160.253357,127.973030 160.078690,127.971581 159.904007,127.970123 
z"/>
<path fill="#29230C" opacity="1.000000" stroke="none" 
	d="
M170.986145,38.005482 
	C171.373032,53.026913 171.759933,68.048340 171.792450,83.516205 
	C171.238098,83.948326 171.038116,83.934029 170.883011,83.584808 
	C170.632233,82.476669 170.336609,81.703453 170.040985,80.930237 
	C170.012115,75.920349 169.983246,70.910469 169.955383,65.071083 
	C169.912277,63.503254 169.868195,62.764927 169.824097,62.026596 
	C169.874664,54.360855 169.925232,46.695114 170.214966,38.541733 
	C170.631470,38.037888 170.808807,38.021683 170.986145,38.005482 
z"/>
<path fill="#2B250A" opacity="1.000000" stroke="none" 
	d="
M159.570648,128.239563 
	C160.078690,127.971581 160.253357,127.973030 160.690002,127.976486 
	C161.040482,132.045349 161.128983,136.112213 160.875946,140.852264 
	C160.345261,148.015503 160.156113,154.505539 159.966980,160.995575 
	C159.966965,160.995575 159.559143,160.997482 159.355225,160.998291 
	C159.179977,150.169067 159.208633,139.339020 159.570648,128.239563 
z"/>
<path fill="#2B240B" opacity="1.000000" stroke="none" 
	d="
M162.037231,77.605560 
	C161.954254,77.999756 161.563385,77.999771 161.367950,77.999443 
	C161.464554,67.296692 161.756577,56.594265 162.309723,45.445656 
	C162.570831,44.999470 162.964798,44.999050 162.964798,44.999050 
	C163.062881,46.742073 163.160965,48.485092 163.236328,51.036678 
	C163.269409,52.875935 163.325211,53.906628 163.381012,54.937321 
	C163.324524,57.348595 163.268021,59.759869 162.915833,62.762474 
	C162.532913,64.226608 162.445694,65.099411 162.358475,65.972214 
	C162.319550,67.696220 162.280624,69.420235 162.261871,71.900757 
	C162.327255,73.108902 162.372452,73.560524 162.417633,74.012146 
	C162.318497,75.078552 162.219360,76.144951 162.037231,77.605560 
z"/>
<path fill="#CBAA31" opacity="1.000000" stroke="none" 
	d="
M160.082153,161.190063 
	C160.156113,154.505539 160.345261,148.015503 160.909241,141.322067 
	C161.083405,147.778427 160.882751,154.438187 160.556244,161.434906 
	C160.430420,161.771881 160.197311,161.384552 160.082153,161.190063 
z"/>
<path fill="#161306" opacity="1.000000" stroke="none" 
	d="
M171.071396,37.558739 
	C170.808807,38.021683 170.631470,38.037888 170.188812,38.080433 
	C169.625671,34.706551 169.327820,31.306330 168.966095,27.459850 
	C169.757278,26.663170 170.612350,26.312748 171.770554,25.956924 
	C171.768005,29.671679 171.462326,33.391834 171.071396,37.558739 
z"/>
<path fill="#CBAA31" opacity="1.000000" stroke="none" 
	d="
M172.661972,192.389557 
	C173.207367,195.408264 173.587341,198.786545 173.901443,202.607788 
	C173.389236,199.616867 172.942902,196.182999 172.661972,192.389557 
z"/>
<path fill="#2A240A" opacity="1.000000" stroke="none" 
	d="
M163.049927,44.538414 
	C162.964798,44.999050 162.570831,44.999470 162.373856,44.999809 
	C162.107986,39.646599 162.039093,34.293045 161.909698,28.476341 
	C162.431168,27.663332 163.013138,27.313478 163.955994,26.976200 
	C163.922943,32.685108 163.529007,38.381443 163.049927,44.538414 
z"/>
<path fill="#CBAA31" opacity="1.000000" stroke="none" 
	d="
M172.538223,168.183807 
	C172.873337,170.043274 172.915741,172.087997 172.895905,174.567215 
	C170.263351,173.001389 170.459305,170.755737 172.538223,168.183807 
z"/>
<path fill="#CBAA31" opacity="1.000000" stroke="none" 
	d="
M161.688568,113.799545 
	C161.424896,111.844666 161.426086,109.685425 161.749725,107.292557 
	C162.032593,109.237686 161.992996,111.416435 161.688568,113.799545 
z"/>
<path fill="#CBAA31" opacity="1.000000" stroke="none" 
	d="
M159.534454,188.561615 
	C159.418686,185.837769 159.433456,182.800659 159.768143,179.542145 
	C159.947037,182.296585 159.806015,185.272476 159.534454,188.561615 
z"/>
<path fill="#CBAA31" opacity="1.000000" stroke="none" 
	d="
M159.627609,203.711273 
	C159.366150,202.254120 159.309509,200.584961 159.336670,198.505875 
	C159.557785,199.897049 159.695114,201.698151 159.627609,203.711273 
z"/>
<path fill="#CBAA31" opacity="1.000000" stroke="none" 
	d="
M171.941849,150.227722 
	C172.373474,151.700394 172.652481,153.437561 172.869141,155.570068 
	C172.467606,154.141022 172.128418,152.316620 171.941849,150.227722 
z"/>
<path fill="#CBAA31" opacity="1.000000" stroke="none" 
	d="
M162.665741,73.975723 
	C162.372452,73.560524 162.327255,73.108902 162.353668,72.322479 
	C162.979263,72.244049 163.533234,72.500404 164.087219,72.756767 
	C163.696091,73.150948 163.304962,73.545128 162.665741,73.975723 
z"/>
<path fill="#2A230B" opacity="1.000000" stroke="none" 
	d="
M170.838150,83.919724 
	C171.038116,83.934029 171.238098,83.948326 171.738190,83.982224 
	C172.061020,85.070770 172.083771,86.139725 172.026398,87.603287 
	C171.946289,87.997887 171.555908,87.998550 171.360718,87.999001 
	C170.871689,86.917862 170.577881,85.836266 170.364624,84.387772 
	C170.445206,84.020866 170.838150,83.919724 170.838150,83.919724 
z"/>
<path fill="#BDA031" opacity="1.000000" stroke="none" 
	d="
M162.549255,65.812393 
	C162.445694,65.099411 162.532913,64.226608 162.928741,63.215153 
	C163.071579,63.935188 162.905792,64.793877 162.549255,65.812393 
z"/>
<path fill="#BDA031" opacity="1.000000" stroke="none" 
	d="
M163.516769,54.680748 
	C163.325211,53.906628 163.269409,52.875935 163.307281,51.468071 
	C163.484818,52.201992 163.568665,53.313087 163.516769,54.680748 
z"/>
<path fill="#CBAA31" opacity="1.000000" stroke="none" 
	d="
M160.621124,172.902344 
	C160.385208,172.552902 160.331985,172.107819 160.357864,171.333771 
	C160.559250,171.605453 160.681549,172.206085 160.621124,172.902344 
z"/>
<path fill="#CBAA31" opacity="1.000000" stroke="none" 
	d="
M171.690155,143.223434 
	C171.869965,143.737915 171.913849,144.483582 171.893600,145.598923 
	C171.737717,145.130600 171.645966,144.292618 171.690155,143.223434 
z"/>
<path fill="#CBAA31" opacity="1.000000" stroke="none" 
	d="
M170.883011,83.584808 
	C170.838150,83.919724 170.445206,84.020866 170.247787,84.066910 
	C170.039581,83.316994 170.028793,82.521042 170.029495,81.327667 
	C170.336609,81.703453 170.632233,82.476669 170.883011,83.584808 
z"/>
<path fill="#CBAA31" opacity="1.000000" stroke="none" 
	d="
M169.688324,62.255531 
	C169.868195,62.764927 169.912277,63.503254 169.889801,64.606766 
	C169.733002,64.142792 169.642776,63.313629 169.688324,62.255531 
z"/>
<path fill="#BDA031" opacity="1.000000" stroke="none" 
	d="
M162.436035,85.863434 
	C162.363937,85.972305 162.244080,85.498680 162.305573,85.262283 
	C162.545776,85.244568 162.592789,85.487465 162.436035,85.863434 
z"/>
<path fill="#CBAA31" opacity="1.000000" stroke="none" 
	d="
M171.770584,140.131470 
	C171.833633,140.018066 171.928436,140.498764 171.877930,140.738373 
	C171.668579,140.750565 171.628616,140.506195 171.770584,140.131470 
z"/>
<path fill="#CBAA31" opacity="1.000000" stroke="none" 
	d="
M161.459686,127.914864 
	C161.413147,128.029633 161.302444,127.554924 161.363358,127.319183 
	C161.539566,127.313248 161.566895,127.552132 161.459686,127.914864 
z"/>
</svg>